<svg width="20" height="20" viewBox="0 0 20 20" fill="none" xmlns="http://www.w3.org/2000/svg">
<path d="M10.0013 14.3971L6.54292 16.4805C6.39014 16.5777 6.23042 16.6194 6.06375 16.6055C5.89708 16.5916 5.75125 16.536 5.62625 16.4388C5.50125 16.3416 5.40403 16.2202 5.33458 16.0746C5.26514 15.9291 5.25125 15.7657 5.29292 15.5846L6.20958 11.6471L3.14708 9.0013C3.0082 8.8763 2.92153 8.7338 2.88708 8.5738C2.85264 8.4138 2.86292 8.25769 2.91792 8.10547C2.97292 7.95325 3.05625 7.82825 3.16792 7.73047C3.27958 7.63269 3.43236 7.57019 3.62625 7.54297L7.66792 7.1888L9.23042 3.48047C9.29986 3.3138 9.40764 3.1888 9.55375 3.10547C9.69986 3.02214 9.84903 2.98047 10.0013 2.98047C10.1535 2.98047 10.3026 3.02214 10.4488 3.10547C10.5949 3.1888 10.7026 3.3138 10.7721 3.48047L12.3346 7.1888L16.3762 7.54297C16.5707 7.57075 16.7235 7.63325 16.8346 7.73047C16.9457 7.82769 17.029 7.95269 17.0846 8.10547C17.1401 8.25825 17.1507 8.41464 17.1163 8.57464C17.0818 8.73464 16.9949 8.87686 16.8554 9.0013L13.7929 11.6471L14.7096 15.5846C14.7513 15.7652 14.7374 15.9285 14.6679 16.0746C14.5985 16.2207 14.5013 16.3421 14.3763 16.4388C14.2513 16.5355 14.1054 16.591 13.9388 16.6055C13.7721 16.6199 13.6124 16.5782 13.4596 16.4805L10.0013 14.3971Z" fill="#EAA423"/>
</svg>
