<svg width="40" height="40" viewBox="0 0 40 40" fill="none" xmlns="http://www.w3.org/2000/svg">
<path d="M20 35.0013L0 15.0013C2.63889 12.3069 5.68778 10.2441 9.14667 8.81297C12.6056 7.38186 16.2233 6.66686 20 6.66797C23.7767 6.66908 27.395 7.38464 30.855 8.81464C34.315 10.2446 37.3633 12.3069 40 15.0013L35.875 19.1263C35.2361 18.8207 34.5622 18.5913 33.8533 18.438C33.1444 18.2846 32.4294 18.2085 31.7083 18.2096C28.9028 18.2096 26.5139 19.1957 24.5417 21.168C22.5694 23.1402 21.5833 25.5291 21.5833 28.3346C21.5833 29.0569 21.66 29.7724 21.8133 30.4813C21.9667 31.1902 22.1956 31.8635 22.5 32.5013L20 35.0013ZM30 35.0013V30.0013H25V26.668H30V21.668H33.3333V26.668H38.3333V30.0013H33.3333V35.0013H30Z" fill="black"/>
</svg>
