<svg width="40" height="40" viewBox="0 0 40 40" fill="none" xmlns="http://www.w3.org/2000/svg">
<path d="M3.33203 33.3346V6.66797H36.6654V33.3346H3.33203ZM13.332 28.3346H16.6654V26.668H18.332C18.8043 26.668 19.2004 26.508 19.5204 26.188C19.8404 25.868 19.9998 25.4724 19.9987 25.0013V20.0013C19.9987 19.5291 19.8387 19.1335 19.5187 18.8146C19.1987 18.4957 18.8031 18.3357 18.332 18.3346H13.332V16.668H19.9987V13.3346H16.6654V11.668H13.332V13.3346H11.6654C11.1931 13.3346 10.7976 13.4946 10.4787 13.8146C10.1598 14.1346 9.99981 14.5302 9.9987 15.0013V20.0013C9.9987 20.4735 10.1587 20.8696 10.4787 21.1896C10.7987 21.5096 11.1943 21.6691 11.6654 21.668H16.6654V23.3346H9.9987V26.668H13.332V28.3346ZM26.6654 27.0846L29.9987 23.7513H23.332L26.6654 27.0846ZM23.332 16.668H29.9987L26.6654 13.3346L23.332 16.668Z" fill="black"/>
</svg>
