<svg width="50" height="50" viewBox="0 0 50 50" fill="none" xmlns="http://www.w3.org/2000/svg">
<path d="M25.0014 43.7487C23.5431 43.7487 22.3105 43.2452 21.3035 42.2383C20.2966 41.2313 19.7931 39.9987 19.7931 38.5404C19.7931 37.082 20.2966 35.8494 21.3035 34.8425C22.3105 33.8355 23.5431 33.332 25.0014 33.332C26.4598 33.332 27.6924 33.8355 28.6994 34.8425C29.7063 35.8494 30.2098 37.082 30.2098 38.5404C30.2098 39.9987 29.7063 41.2313 28.6994 42.2383C27.6924 43.2452 26.4598 43.7487 25.0014 43.7487ZM25.0014 20.832C27.6056 20.832 30.0799 21.2487 32.4244 22.082C34.7688 22.9154 36.8952 24.0612 38.8035 25.5195C39.498 26.0404 39.8542 26.7265 39.8723 27.5779C39.8903 28.4293 39.5862 29.1668 38.9598 29.7904C38.3695 30.3806 37.6403 30.6848 36.7723 30.7029C35.9042 30.7209 35.123 30.4862 34.4285 29.9987C33.1091 29.0959 31.6507 28.3841 30.0535 27.8633C28.4563 27.3424 26.7723 27.082 25.0014 27.082C23.2306 27.082 21.5466 27.3424 19.9494 27.8633C18.3521 28.3841 16.8938 29.0959 15.5744 29.9987C14.8799 30.4848 14.0987 30.7105 13.2306 30.6758C12.3625 30.6411 11.6334 30.3286 11.0431 29.7383C10.4528 29.1133 10.1577 28.3758 10.1577 27.5258C10.1577 26.6758 10.5049 25.9897 11.1994 25.4675C13.1091 24.0091 15.2362 22.8716 17.5806 22.0549C19.925 21.2383 22.3987 20.8306 25.0014 20.832ZM25.0014 8.33203C29.3417 8.33203 33.4306 9.04384 37.2681 10.4674C41.1056 11.8911 44.5514 13.9049 47.6056 16.5091C48.3 17.0994 48.6646 17.8286 48.6994 18.6966C48.7341 19.5647 48.4389 20.3112 47.8139 20.9362C47.2237 21.5265 46.4945 21.8306 45.6264 21.8487C44.7584 21.8668 43.9771 21.5973 43.2827 21.0404C40.7827 18.9918 37.9792 17.4036 34.8723 16.2758C31.7653 15.148 28.475 14.5834 25.0014 14.582C21.5278 14.5806 18.2382 15.1452 15.1327 16.2758C12.0271 17.4063 9.22297 18.9945 6.72019 21.0404C6.02574 21.5959 5.24449 21.8654 4.37644 21.8487C3.50838 21.832 2.77922 21.5279 2.18894 20.9362C1.56394 20.3112 1.2688 19.5647 1.30352 18.6966C1.33824 17.8286 1.70283 17.0994 2.39727 16.5091C5.45283 13.9049 8.89935 11.8911 12.7369 10.4674C16.5744 9.04384 20.6626 8.33203 25.0014 8.33203Z" fill="black"/>
</svg>
