<svg width="40" height="40" viewBox="0 0 40 40" fill="none" xmlns="http://www.w3.org/2000/svg">
<path d="M20.0007 19.1673C18.8956 19.1673 17.8358 18.7283 17.0544 17.9469C16.273 17.1655 15.834 16.1057 15.834 15.0007C15.834 13.8956 16.273 12.8358 17.0544 12.0544C17.8358 11.273 18.8956 10.834 20.0007 10.834C21.1057 10.834 22.1655 11.273 22.9469 12.0544C23.7283 12.8358 24.1673 13.8956 24.1673 15.0007C24.1673 15.5478 24.0595 16.0896 23.8502 16.5952C23.6408 17.1007 23.3338 17.56 22.9469 17.9469C22.56 18.3338 22.1007 18.6408 21.5952 18.8501C21.0896 19.0595 20.5478 19.1673 20.0007 19.1673ZM20.0007 3.33398C16.9065 3.33398 13.939 4.56315 11.7511 6.75107C9.56315 8.939 8.33398 11.9065 8.33398 15.0007C8.33398 23.7507 20.0007 36.6673 20.0007 36.6673C20.0007 36.6673 31.6673 23.7507 31.6673 15.0007C31.6673 11.9065 30.4382 8.939 28.2502 6.75107C26.0623 4.56315 23.0948 3.33398 20.0007 3.33398Z" fill="black"/>
</svg>
