<svg width="40" height="40" viewBox="0 0 40 40" fill="none" xmlns="http://www.w3.org/2000/svg">
<path d="M19.9987 33.332C23.5349 33.332 26.9263 31.9273 29.4268 29.4268C31.9273 26.9263 33.332 23.5349 33.332 19.9987C33.332 16.4625 31.9273 13.0711 29.4268 10.5706C26.9263 8.07012 23.5349 6.66536 19.9987 6.66536C16.4625 6.66536 13.0711 8.07012 10.5706 10.5706C8.07012 13.0711 6.66536 16.4625 6.66536 19.9987C6.66536 23.5349 8.07012 26.9263 10.5706 29.4268C13.0711 31.9273 16.4625 33.332 19.9987 33.332ZM19.9987 3.33203C22.1874 3.33203 24.3547 3.76313 26.3768 4.60071C28.3988 5.43828 30.2362 6.66594 31.7838 8.21358C33.3315 9.76123 34.5591 11.5985 35.3967 13.6206C36.2343 15.6427 36.6654 17.81 36.6654 19.9987C36.6654 24.419 34.9094 28.6582 31.7838 31.7838C28.6582 34.9094 24.419 36.6654 19.9987 36.6654C10.782 36.6654 3.33203 29.1654 3.33203 19.9987C3.33203 15.5784 5.08798 11.3392 8.21358 8.21358C11.3392 5.08798 15.5784 3.33203 19.9987 3.33203ZM20.832 11.6654V20.4154L28.332 24.8654L27.082 26.9154L18.332 21.6654V11.6654H20.832Z" fill="black"/>
</svg>
