<svg width="50" height="50" viewBox="0 0 50 50" fill="none" xmlns="http://www.w3.org/2000/svg">
<path d="M25.0013 4.16797C36.5076 4.16797 45.8346 13.4951 45.8346 25.0013C45.8346 36.5076 36.5076 45.8346 25.0013 45.8346C13.4951 45.8346 4.16797 36.5076 4.16797 25.0013C4.16797 13.4951 13.4951 4.16797 25.0013 4.16797ZM25.0013 8.33464C20.581 8.33464 16.3418 10.0906 13.2162 13.2162C10.0906 16.3418 8.33464 20.581 8.33464 25.0013C8.33464 29.4216 10.0906 33.6608 13.2162 36.7864C16.3418 39.912 20.581 41.668 25.0013 41.668C29.4216 41.668 33.6608 39.912 36.7864 36.7864C39.912 33.6608 41.668 29.4216 41.668 25.0013C41.668 20.581 39.912 16.3418 36.7864 13.2162C33.6608 10.0906 29.4216 8.33464 25.0013 8.33464ZM25.0013 12.5013C25.5116 12.5014 26.0041 12.6887 26.3854 13.0278C26.7667 13.3669 27.0104 13.8341 27.0701 14.3409L27.0846 14.5846V24.1388L32.7242 29.7784C33.0979 30.1533 33.3148 30.6564 33.3309 31.1854C33.3471 31.7145 33.1613 32.2299 32.8112 32.6269C32.4611 33.0239 31.9731 33.2728 31.4461 33.323C30.9192 33.3732 30.393 33.2209 29.9742 32.8971L29.7784 32.7242L23.5284 26.4742C23.2046 26.1502 22.9966 25.7284 22.9367 25.2742L22.918 25.0013V14.5846C22.918 14.0321 23.1375 13.5022 23.5282 13.1115C23.9189 12.7208 24.4488 12.5013 25.0013 12.5013Z" fill="black"/>
</svg>
